Coordinates
version=1
nRows=12
nColumns=46
inDegrees=yes

Units are S.I. units (second, meters, Newtons, ...)
Angles are in degrees.

endheader
time	pelvis_tilt	pelvis_list	pelvis_rotation	pelvis_tx	pelvis_ty	pelvis_tz	bb_angle	bb_tx	bb_ty	bb_tz	hip_flexion_r	hip_adduction_r	hip_rotation_r	knee_angle_r	knee_angle_r_beta	ankle_angle_r	subtalar_angle_r	mtp_angle_r	crank_angle_r	hip_flexion_l	hip_adduction_l	hip_rotation_l	knee_angle_l	knee_angle_l_beta	ankle_angle_l	subtalar_angle_l	mtp_angle_l	crank_angle_l	lumbar_extension	lumbar_bending	lumbar_rotation	arm_flex_r	arm_add_r	arm_rot_r	elbow_flex_r	pro_sup_r	wrist_flex_r	wrist_dev_r	arm_flex_l	arm_add_l	arm_rot_l	elbow_flex_l	pro_sup_l	wrist_flex_l	wrist_dev_l
      7.50500000	    -25.31802449	      8.68945017	     11.15493578	      0.42198244	      1.17112935	     -0.24161757	      0.00000000	      0.50000000	      0.00000000	      0.25000000	     18.44169337	    -14.76743278	     -1.92104532	     25.24499397	      0.44060826	    -12.82637755	     -3.46107888	      0.00000000	      0.00000000	     75.19657489	      8.73401690	     -1.67955737	    105.58737300	      1.84284731	     -6.42444495	     -8.53914848	      0.00000000	      0.00000000	    -59.12134938	     -0.62443579	     -3.71274614	     18.21073554	    -13.34439295	     -2.33408199	    103.84519919	     51.38392213	      0.00000000	      0.00000000	     37.54207593	     -9.11326806	     23.97648836	     83.93438316	     56.25111235	      0.00000000	      0.00000000
      7.51000000	    -25.36689392	      8.52220798	     11.84670243	      0.42175764	      1.17303977	     -0.24196900	      0.00000000	      0.50000000	      0.00000000	      0.25000000	     18.93382159	    -14.73806906	     -2.12051934	     27.10439566	      0.47306095	    -13.93453371	     -4.42971679	      0.00000000	      0.00000000	     75.04421782	      9.25978506	     -1.40670006	    104.57683065	      1.82521002	     -4.38788688	     -8.10862852	      0.00000000	      0.00000000	    -59.46289145	     -0.13640998	     -3.78192329	     18.33118431	    -13.31051354	     -2.59362330	    103.83570160	     51.36533542	      0.00000000	      0.00000000	     37.93982204	     -8.98571863	     24.25895347	     84.09016010	     56.30683479	      0.00000000	      0.00000000
      7.51500000	    -25.46090212	      8.36225203	     12.52414079	      0.42141611	      1.17528341	     -0.24250056	      0.00000000	      0.50000000	      0.00000000	      0.25000000	     19.62816389	    -14.72477306	     -2.15820424	     29.09903167	      0.50787391	    -15.27765944	     -5.37864280	      0.00000000	      0.00000000	     74.52384426	     10.15966556	     -1.00264146	    103.15067899	      1.80031897	     -2.02270730	     -8.59234143	      0.00000000	      0.00000000	    -59.87466550	      0.32579082	     -3.67834393	     18.37014997	    -13.26422026	     -3.19360130	    104.13993351	     51.39091839	      0.00000000	      0.00000000	     38.58425494	     -8.57455616	     22.40204287	     85.78332236	     56.39571655	      0.00000000	      0.00000000
      7.52000000	    -25.45679239	      8.07524092	     13.16122100	      0.42104727	      1.17759634	     -0.24303904	      0.00000000	      0.50000000	      0.00000000	      0.25000000	     20.46842977	    -14.62514388	     -2.22308356	     31.38300884	      0.54773683	    -16.75070032	     -5.80013228	      0.00000000	      0.00000000	     73.92883606	     10.65855947	     -0.59951460	    101.68306995	      1.77470436	     -0.03197345	     -8.95948283	      0.00000000	      0.00000000	    -60.30179602	      0.94322055	     -3.73281175	     18.74917512	    -13.23098239	     -3.26934068	    104.17301198	     51.38689902	      0.00000000	      0.00000000	     38.91626931	     -8.41420615	     22.36977949	     85.96348235	     56.41592042	      0.00000000	      0.00000000
      7.52500000	    -25.69995613	      8.00389643	     13.89703915	      0.42064709	      1.17987631	     -0.24373225	      0.00000000	      0.50000000	      0.00000000	      0.25000000	     21.62397529	    -14.78466017	     -2.07072229	     33.74011420	      0.58887608	    -18.58491003	     -6.94282949	      0.00000000	      0.00000000	     73.32070906	     11.21705268	     -0.40531858	     99.97795473	      1.74494449	      2.87087196	     -8.06979200	      0.00000000	      0.00000000	    -60.52814946	      1.48415989	     -4.03565145	     18.99513109	    -13.11299851	     -3.64427876	    104.37296294	     51.38460217	      0.00000000	      0.00000000	     39.20949249	     -8.47781824	     21.73760621	     86.55856415	     56.42877103	      0.00000000	      0.00000000
      7.53000000	    -25.72643160	      7.80430155	     14.34729224	      0.42046357	      1.18208086	     -0.24411270	      0.00000000	      0.50000000	      0.00000000	      0.25000000	     22.79419757	    -14.71813767	     -1.72064104	     36.23552366	      0.63242919	    -20.57194508	     -7.51876592	      0.00000000	      0.00000000	     72.37626773	     11.70438123	      0.13584035	     98.26109533	      1.71497964	      5.93992117	     -7.12428731	      0.00000000	      0.00000000	    -60.89638445	      1.95699648	     -4.37217585	     19.46243473	    -12.65094753	     -3.73313816	    104.46363076	     51.39939856	      0.00000000	      0.00000000	     39.21787550	     -8.60779567	     21.26860381	     87.21785764	     56.47681072	      0.00000000	      0.00000000
      7.53500000	    -25.69841842	      7.65831072	     14.86838532	      0.42049097	      1.18453215	     -0.24465576	      0.00000000	      0.50000000	      0.00000000	      0.25000000	     23.90962918	    -14.75017191	     -1.45617212	     38.65775223	      0.67470506	    -22.80100613	     -7.83279876	      0.00000000	      0.00000000	     71.18991925	     12.31513119	      0.66839607	     96.30515803	      1.68084209	      8.68510416	     -6.78355122	      0.00000000	      0.00000000	    -61.33004814	      2.52400474	     -4.77725883	     20.00366314	    -12.36038336	     -3.68224296	    104.44009131	     51.40732555	      0.00000000	      0.00000000	     39.31780197	     -8.77058282	     20.92306423	     87.70506425	     56.51022161	      0.00000000	      0.00000000
      7.54000000	    -25.55167838	      7.34095186	     15.25621074	      0.42087830	      1.18672979	     -0.24478326	      0.00000000	      0.50000000	      0.00000000	      0.25000000	     24.98906446	    -14.48219979	     -1.05503245	     41.02048140	      0.71594246	    -25.28631787	     -8.00408425	      0.00000000	      0.00000000	     70.01588239	     12.26021325	      1.11663384	     94.44630749	      1.64839903	     11.19912814	     -5.44643535	      0.00000000	      0.00000000	    -61.78878236	      3.12311162	     -5.12811993	     20.62793265	    -11.90301787	     -3.35055955	    104.27422777	     51.42662669	      0.00000000	      0.00000000	     39.29037265	     -9.18065210	     20.43276921	     88.36636382	     56.55393860	      0.00000000	      0.00000000
      7.54500000	    -25.46069381	      7.11225618	     15.71059352	      0.42120076	      1.18885370	     -0.24535080	      0.00000000	      0.50000000	      0.00000000	      0.25000000	     26.15519540	    -14.37977326	     -0.64825867	     43.45541370	      0.75844005	    -27.68578911	     -7.74530478	      0.00000000	      0.00000000	     68.54169949	     12.68404391	      1.70654412	     92.14695335	      1.60826773	     13.45197900	     -5.45132593	      0.00000000	      0.00000000	    -62.16573914	      3.84272551	     -6.51529186	     22.08495826	    -11.16804943	     -1.76170484	    103.11371345	     51.45829113	      0.00000000	      0.00000000	     38.42593174	    -10.32654645	     18.98975334	     90.18245536	     56.66134545	      0.00000000	      0.00000000
      7.55000000	    -25.32962639	      6.74545688	     16.14030960	      0.42159142	      1.19072881	     -0.24591959	      0.00000000	      0.50000000	      0.00000000	      0.25000000	     27.31745953	    -14.13930507	     -0.39204864	     45.79620640	      0.79929459	    -30.18519542	     -7.21851696	      0.00000000	      0.00000000	     67.02181360	     12.88715629	      2.20237559	     89.65650402	      1.56480119	     15.13521271	     -6.08253876	      0.00000000	      0.00000000	    -62.48649367	      4.50389813	     -6.47380684	     22.38173802	    -11.11390827	     -1.70271065	    103.12833988	     51.46837295	      0.00000000	      0.00000000	     38.63989799	    -10.36034441	     18.86268973	     90.26364235	     56.65353207	      0.00000000	      0.00000000
      7.55500000	    -25.14040114	      6.51329950	     16.55094623	      0.42216734	      1.19269663	     -0.24640370	      0.00000000	      0.50000000	      0.00000000	      0.25000000	     28.37582235	    -14.00149078	     -0.18456477	     48.05075393	      0.83864386	    -32.70553246	     -7.13731217	      0.00000000	      0.00000000	     65.32195386	     13.05769066	      2.59903455	     86.93555935	      1.51731175	     16.34874856	     -6.39316756	      0.00000000	      0.00000000	    -62.95832953	      5.09977263	     -6.63423729	     22.72232858	    -10.96562180	     -1.52137719	    103.13318707	     51.49327394	      0.00000000	      0.00000000	     38.73256583	    -10.56254232	     18.64781525	     90.45848777	     56.65339571	      0.00000000	      0.00000000
      7.56000000	    -24.78159277	      6.20303100	     17.00575682	      0.42269004	      1.19455325	     -0.24695963	      0.00000000	      0.50000000	      0.00000000	      0.25000000	     29.22499130	    -13.79164330	     -0.16103741	     50.21474236	      0.87641259	    -35.01248088	     -6.65118861	      0.00000000	      0.00000000	     63.51789075	     13.23203087	      3.10427600	     84.24127152	      1.47028755	     17.06197355	     -7.13303966	      0.00000000	      0.00000000	    -63.47240983	      5.84705508	     -6.87693181	     23.21632074	    -10.74274831	     -1.15934690	    102.98783527	     51.51549259	      0.00000000	      0.00000000	     38.68719445	    -10.98673627	     18.34495651	     90.89971833	     56.68232784	      0.00000000	      0.00000000
